<?xml version="1.0" standalone="no"?>
<!DOCTYPE svg PUBLIC "-//W3C//DTD SVG 20010904//EN"
 "http://www.w3.org/TR/2001/REC-SVG-20010904/DTD/svg10.dtd">
<svg version="1.0" xmlns="http://www.w3.org/2000/svg"
 width="1064.000000pt" height="1064.000000pt" viewBox="0 0 1064.000000 1064.000000"
 preserveAspectRatio="xMidYMid meet">
<metadata>
Created by potrace 1.14, written by Peter Selinger 2001-2017
</metadata>
<g transform="translate(0.000000,1064.000000) scale(0.100000,-0.100000)"
fill="#000000" stroke="none">
<path d="M5072 7805 l0 -175 32 -1 c47 0 407 0 441 0 l31 1 -1 173 0 172 -251
3 -252 2 0 -175z"/>
<path d="M718 7849 c-6 -4 -10 -353 -10 -975 0 -597 -4 -978 -10 -994 -18 -49
-48 -70 -98 -70 -66 0 -110 46 -110 115 0 13 -16 43 -35 67 -38 46 -90 109
-115 138 -8 10 -22 27 -30 37 -56 69 -106 129 -110 133 -3 3 -35 41 -70 85
-36 44 -75 91 -87 105 -13 14 -23 28 -23 32 0 5 -5 8 -11 8 -7 0 -9 -110 -6
-372 4 -404 5 -411 66 -528 37 -69 145 -171 221 -207 117 -55 150 -63 298 -67
209 -7 376 69 493 224 51 67 94 164 105 235 3 17 9 44 13 60 9 35 11 1975 2
1976 -32 4 -475 3 -483 -2z"/>
<path d="M4285 7850 c-1 -3 -2 -103 -1 -223 1 -186 -1 -217 -14 -218 -8 -1
-41 -1 -72 -2 l-57 -1 1 -193 0 -193 69 2 c63 3 69 1 70 -17 0 -11 2 -335 3
-720 3 -773 2 -760 67 -838 57 -69 138 -95 291 -92 108 2 179 10 238 25 l36
10 -1 172 0 172 -56 -3 c-42 -2 -59 2 -70 15 -12 14 -14 118 -15 646 l-2 628
32 1 c17 0 49 0 72 -1 l40 -1 0 193 -1 193 -70 0 -70 1 -2 199 c-1 110 -2 211
-2 225 l-1 25 -241 0 c-132 0 -242 -2 -244 -5z"/>
<path d="M3245 7493 c-33 -7 -71 -16 -85 -19 -63 -13 -177 -81 -235 -139 -104
-105 -141 -215 -132 -391 8 -136 21 -194 60 -264 51 -93 103 -145 279 -281 73
-57 135 -106 138 -109 3 -3 21 -17 40 -29 19 -13 65 -54 102 -92 49 -50 71
-82 84 -121 19 -59 25 -167 10 -215 -28 -95 -152 -108 -195 -20 -16 32 -19 63
-20 185 -1 80 -6 149 -10 152 -7 4 -464 5 -493 1 -7 -1 -3 -303 5 -338 35
-147 81 -238 155 -310 75 -71 180 -120 302 -140 58 -9 241 -9 305 1 248 36
424 201 470 438 22 116 14 303 -19 405 -41 127 -147 268 -275 366 -31 23 -62
47 -71 54 -38 30 -239 177 -273 199 -21 14 -43 36 -49 49 -6 14 -15 25 -19 25
-11 0 -28 88 -23 119 12 69 28 88 88 98 74 12 116 -47 122 -172 1 -38 3 -74 3
-80 1 -8 241 -11 489 -6 l33 1 -5 93 c-10 214 -83 366 -218 457 -58 39 -159
78 -226 87 -80 12 -279 10 -337 -4z"/>
<path d="M6520 7503 c-54 -18 -109 -52 -140 -86 -35 -37 -47 -57 -83 -137
l-16 -35 -1 55 c-1 30 -2 84 -3 120 l-2 65 -250 0 -250 0 0 -1048 c0 -691 3
-1051 10 -1055 5 -4 116 -7 245 -7 259 -1 263 0 250 59 -4 17 -3 43 1 59 4 15
3 27 -1 27 -5 0 -5 12 -1 28 4 15 5 38 1 52 -4 14 -3 37 1 53 4 15 4 27 -1 27
-5 0 -5 12 -1 28 4 15 5 38 1 52 -4 14 -3 37 1 53 4 15 4 27 -1 27 -5 0 -5 12
-1 28 4 15 5 38 1 52 -4 14 -3 37 1 53 4 15 4 27 -1 27 -5 0 -5 12 -1 28 4 15
5 38 1 52 -4 14 -3 37 1 53 4 15 4 27 -1 27 -5 0 -5 12 -1 28 4 15 5 38 1 52
-4 14 -3 37 1 53 4 15 4 27 -1 27 -5 0 -5 12 -1 28 4 15 5 38 1 52 -4 14 -3
37 1 53 4 15 4 27 -1 27 -5 0 -5 12 -1 28 4 15 5 38 1 52 -4 14 -3 37 1 53 4
15 4 27 -1 27 -5 0 -5 12 -1 28 4 15 4 39 0 54 -4 15 -5 29 -2 31 2 3 5 52 5
108 2 159 25 230 82 249 53 17 86 8 121 -34 l30 -38 0 -164 c0 -90 3 -164 7
-164 4 0 5 -7 2 -15 -9 -22 -10 -305 -2 -305 4 0 5 -7 2 -15 -9 -22 -10 -305
-2 -305 4 0 5 -7 2 -15 -9 -24 -10 -305 -1 -305 5 0 5 -5 1 -11 -8 -13 -9
-342 -1 -355 4 -7 429 -12 482 -5 7 1 10 292 9 853 -1 765 -4 934 -19 957 -2
4 -6 20 -9 34 -22 122 -137 243 -261 274 -29 7 -187 12 -205 6z"/>
<path d="M1386 7481 c-3 -6 1 -1712 4 -1741 6 -44 44 -178 61 -211 29 -59 77
-108 131 -135 26 -13 48 -22 48 -20 0 2 19 -2 43 -9 65 -19 212 -13 269 12 51
23 109 79 133 129 9 18 20 36 25 39 6 3 10 15 10 26 0 10 3 19 8 19 4 0 6 -26
4 -57 -4 -78 -3 -144 2 -152 3 -4 116 -6 253 -6 l248 0 0 1055 0 1055 -235 2
c-129 0 -242 -1 -251 -3 -14 -4 -15 -63 -15 -564 1 -308 -2 -560 -6 -560 -4 0
-3 -13 2 -29 4 -16 6 -31 4 -34 -3 -2 -4 -24 -4 -48 6 -428 -11 -499 -114
-499 -62 0 -101 33 -112 93 -1 4 -2 375 -3 825 l-1 819 -250 0 c-138 0 -252
-3 -254 -6z"/>
<path d="M5075 7476 c-2 -6 -3 -481 -2 -1056 l2 -1045 250 0 251 0 -1 1055 0
1055 -248 1 c-170 0 -250 -3 -252 -10z"/>
<path d="M57 5135 c-4 -17 -2 -2441 2 -2456 0 -3 108 -5 239 -5 l237 1 2 547
c1 302 4 552 7 556 2 4 1 13 -3 20 -4 6 -5 29 -2 49 l5 38 7 -35 c3 -19 13
-69 22 -110 8 -41 18 -88 21 -105 9 -46 47 -237 52 -265 3 -14 18 -88 34 -165
16 -77 32 -153 34 -170 6 -34 10 -49 31 -155 8 -41 17 -86 20 -100 3 -14 8
-38 12 -55 4 -16 7 -34 7 -40 1 -6 89 -10 244 -10 l242 -1 0 1238 0 1238 -32
0 c-50 1 -379 1 -414 1 l-31 -1 1 -579 c0 -319 -1 -577 -4 -574 -3 2 -5 8 -6
11 0 4 -3 21 -7 37 -4 17 -9 44 -12 60 -3 17 -7 41 -10 55 -13 63 -27 137 -30
160 -2 14 -17 93 -34 175 -16 83 -32 161 -34 175 -3 14 -10 52 -16 85 -14 78
-19 105 -26 135 -8 36 -14 69 -20 110 -3 19 -11 61 -18 93 l-12 59 -252 1
c-245 2 -252 1 -256 -18z"/>
<path d="M3728 4815 c-3 -3 -25 -8 -49 -10 -24 -2 -44 -4 -44 -5 0 -1 -7 -3
-15 -5 -77 -15 -175 -97 -213 -176 -12 -27 -24 -48 -27 -49 -3 0 -4 48 -3 107
l2 108 -242 -1 c-133 -1 -247 -2 -253 -3 -7 -1 -10 -321 -10 -1053 l1 -1053
247 -1 c219 -1 248 1 252 15 3 9 4 360 4 781 0 421 1 782 1 802 1 33 6 40 39
56 36 19 72 30 122 38 14 2 35 7 48 9 13 3 51 8 85 11 34 3 63 7 65 8 4 5 4
417 -1 422 -2 2 -6 2 -9 -1z"/>
<path d="M1905 4794 c-113 -21 -124 -24 -173 -46 -111 -51 -180 -126 -221
-238 -26 -72 -31 -103 -38 -236 l-6 -112 174 -1 c217 -1 204 -1 267 0 l52 2 0
84 c0 97 17 146 59 167 49 25 101 4 131 -54 19 -37 25 -121 21 -285 l-1 -41
-77 -24 c-43 -14 -79 -24 -81 -22 -1 1 -16 -5 -32 -13 -17 -9 -30 -13 -30 -9
0 4 -6 2 -12 -3 -7 -5 -42 -20 -78 -32 -157 -55 -254 -117 -320 -206 -13 -17
-51 -90 -55 -105 -1 -3 -6 -23 -13 -45 -37 -132 -44 -332 -19 -525 14 -102 64
-232 111 -288 61 -71 164 -110 294 -110 61 0 88 5 126 23 77 37 143 111 178
200 l16 40 0 -100 c0 -55 1 -109 1 -121 1 -21 4 -21 251 -21 l250 0 -1 53 c-1
28 2 57 5 63 4 6 3 11 -3 11 -6 0 -7 11 -2 28 4 15 5 38 1 52 -4 14 -3 37 1
52 4 14 5 28 3 31 -3 2 -4 33 -4 68 0 35 1 73 0 84 0 11 0 31 1 45 1 34 1 389
-1 435 0 11 0 31 1 45 1 32 1 384 -1 433 0 35 -1 54 -1 152 0 128 -5 175 -30
249 -56 165 -207 282 -414 322 -66 13 -255 11 -330 -2z m263 -1336 c-4 -360
-5 -370 -58 -402 -34 -19 -86 -14 -112 12 -42 43 -48 84 -46 311 3 192 5 220
23 256 11 22 26 48 35 59 19 23 131 96 148 96 11 0 13 -63 10 -332z"/>
<path d="M5680 4803 c-65 -10 -180 -47 -234 -76 -78 -42 -166 -130 -202 -203
-16 -33 -29 -61 -30 -64 0 -3 -3 -12 -7 -20 -27 -71 -30 -143 -30 -655 0 -544
0 -540 20 -655 17 -104 28 -137 71 -220 69 -135 187 -217 355 -247 56 -10 260
-12 312 -3 81 14 98 18 145 35 108 39 199 115 245 206 33 63 63 152 71 207 4
26 8 56 11 67 2 11 6 86 8 168 l5 147 -250 0 c-193 0 -250 -3 -251 -12 0 -7
-2 -90 -3 -184 -3 -179 -2 -177 -52 -243 -2 -2 -26 -5 -53 -7 -85 -4 -114 34
-127 166 -4 36 -6 70 -5 75 0 9 1 170 0 205 0 8 1 56 2 105 l1 90 363 0 363
-1 4 28 c3 16 4 165 3 331 -1 329 -7 378 -62 493 -37 80 -124 165 -204 203
-80 36 -99 43 -124 46 -11 2 -33 6 -50 10 -33 8 -254 14 -295 8z m177 -388
c45 -32 57 -94 58 -294 l0 -186 -117 0 c-74 -1 -118 3 -119 10 -3 35 0 307 4
340 7 55 32 111 59 129 28 20 87 21 115 1z"/>
<path d="M7027 4793 c-96 -16 -212 -63 -276 -112 -53 -39 -131 -128 -131 -148
0 -7 -3 -13 -8 -13 -4 0 -16 -28 -27 -62 -26 -81 -27 -257 -3 -368 7 -33 48
-131 58 -140 3 -3 16 -19 28 -37 34 -48 81 -94 158 -154 38 -29 71 -56 74 -59
3 -3 55 -44 115 -90 130 -100 199 -162 226 -206 64 -104 59 -307 -9 -343 -27
-14 -101 -5 -123 15 -37 34 -42 56 -46 213 -2 85 -5 156 -6 158 -6 6 -485 6
-494 0 -15 -9 -8 -283 10 -363 15 -70 63 -188 89 -219 130 -158 286 -218 543
-211 113 4 140 7 185 21 10 3 28 8 39 10 11 2 49 18 85 34 142 68 254 214 281
366 2 17 7 41 10 55 7 32 7 228 0 258 -3 12 -7 32 -10 43 -15 69 -39 132 -72
189 -41 70 -191 227 -263 275 -25 16 -47 32 -50 35 -3 3 -30 23 -60 45 -30 22
-64 48 -74 57 -11 10 -23 18 -27 18 -4 0 -14 6 -21 13 -7 6 -31 25 -53 41 -53
39 -75 64 -91 104 -20 46 -20 126 0 157 33 51 110 58 150 15 30 -32 37 -58 41
-144 2 -38 6 -74 8 -80 5 -12 493 -16 513 -3 6 3 10 21 8 39 -3 18 -6 58 -9
88 -4 54 -7 73 -22 135 -4 17 -7 32 -8 35 0 3 -12 30 -26 61 -69 147 -200 241
-384 274 -70 13 -247 12 -328 -2z"/>
<path d="M8489 4806 c-2 -2 -20 -6 -39 -9 -96 -15 -166 -41 -240 -90 -89 -59
-174 -168 -211 -272 -46 -127 -48 -168 -45 -740 1 -297 5 -552 9 -567 4 -16 9
-38 11 -50 9 -51 47 -142 79 -191 108 -161 265 -231 522 -231 135 0 163 2 250
25 173 46 306 182 356 362 29 105 31 152 32 672 0 576 -2 598 -48 721 -43 115
-145 240 -231 284 -16 8 -31 18 -34 21 -6 7 -122 46 -165 55 -34 7 -240 15
-246 10z m172 -425 c15 -18 29 -50 33 -71 3 -21 5 -296 3 -612 -2 -518 -4
-576 -19 -604 -21 -38 -64 -57 -112 -51 -43 6 -61 19 -84 61 -14 28 -16 94
-16 616 -1 489 2 591 14 620 24 59 55 80 114 75 31 -2 46 -10 67 -34z"/>
<path d="M10119 4791 c-25 -10 -60 -29 -78 -42 -42 -31 -108 -130 -117 -175
-12 -65 -20 -34 -19 79 1 61 0 117 -2 122 -2 6 -95 10 -251 10 l-247 0 -1
-1056 -2 -1056 252 1 251 1 1 785 c0 832 2 867 47 924 18 22 32 29 67 31 63 3
98 -25 118 -95 2 -8 5 -382 6 -830 l1 -815 245 0 245 0 2 865 c2 950 3 936
-58 1067 -36 76 -109 144 -187 174 -77 29 -210 34 -273 10z"/>
<path d="M3804 4732 c3 -30 8 -57 10 -60 2 -4 7 -36 11 -72 4 -36 8 -67 10
-70 2 -3 6 -26 10 -50 8 -59 14 -94 25 -160 9 -49 14 -86 26 -170 3 -23 8 -52
20 -120 8 -51 33 -206 38 -240 3 -19 7 -46 10 -60 5 -24 10 -57 21 -137 3 -21
7 -49 10 -63 6 -27 8 -38 25 -150 6 -41 14 -86 16 -100 2 -14 7 -43 10 -65 2
-22 7 -49 9 -61 3 -12 7 -39 10 -60 4 -21 15 -91 25 -154 11 -63 22 -133 25
-155 12 -85 14 -96 19 -104 3 -4 136 -8 296 -8 257 0 290 2 291 16 0 9 2 25 5
36 2 11 6 36 9 55 2 19 7 46 10 60 4 22 8 46 20 127 2 15 6 37 9 49 2 12 7 45
11 75 3 30 10 70 15 89 5 19 11 58 15 85 3 28 8 57 10 65 2 8 6 35 9 60 3 25
8 56 11 70 3 14 7 41 10 60 2 19 6 44 8 55 4 18 12 65 23 130 1 11 16 103 33
205 16 102 32 201 35 220 3 19 8 46 10 60 6 32 16 97 22 135 2 17 6 41 9 55 3
14 8 45 11 70 3 25 8 48 10 51 1 3 6 30 9 60 3 30 8 61 10 69 2 8 6 29 9 45 2
17 7 48 11 70 l6 40 -251 0 c-286 0 -256 11 -265 -100 -2 -33 -6 -69 -9 -80
-2 -11 -7 -56 -11 -100 -4 -44 -9 -93 -11 -110 -7 -55 -14 -119 -19 -170 -4
-45 -9 -93 -20 -195 -7 -67 -16 -145 -20 -170 -11 -75 -22 -239 -24 -344 -1
-66 -15 -68 -17 -3 -5 101 -15 265 -19 297 -2 19 -7 67 -10 105 -4 39 -8 84
-10 100 -1 17 -6 62 -9 100 -4 39 -9 81 -11 95 -2 14 -6 61 -10 105 -3 44 -8
94 -11 110 -2 17 -6 57 -9 90 -2 33 -7 89 -10 125 -4 36 -8 80 -10 98 -2 18
-6 36 -10 40 -4 4 -117 7 -252 7 l-245 0 6 -53z"/>
</g>
</svg>
