<?xml version="1.0" encoding="UTF-8"?><svg id="a" xmlns="http://www.w3.org/2000/svg" viewBox="0 0 265.82 133.02"><defs><style>.b{fill:#00311e;stroke-width:0px;}</style></defs><path class="b" d="M7.42,63.94c-2.3-1.1-4.12-2.72-5.44-4.86-1.32-2.14-1.98-4.72-1.98-7.74v-15.48l12.17,14.76c0,1.1.23,1.98.68,2.63.46.65,1.16.97,2.12.97.91,0,1.6-.3,2.05-.9.46-.6.68-1.45.68-2.56V3.17h12.46v46.37c0,3.22-.64,6.04-1.91,8.46-1.27,2.42-3.05,4.3-5.33,5.62-2.28,1.32-4.88,1.98-7.81,1.98s-5.4-.55-7.7-1.66Z"/><path class="b" d="M36.75,62.06c-1.46-2.35-2.2-5.86-2.2-10.51V12.31h12.67v39.42c0,1.46.23,2.5.68,3.1.46.6,1.16.9,2.12.9,1.3,0,2.11-.54,2.45-1.62.33-1.08.5-2.63.5-4.64v-.43l.07-36.72h12.53v52.7h-12.6v-5.62c-.86,2.21-1.87,3.79-3.02,4.75-1.15.96-2.86,1.44-5.11,1.44-3.94,0-6.64-1.18-8.1-3.53Z"/><path class="b" d="M69.48,49.75l.07-4.18h12.6l.07,6.19c0,1.25.24,2.2.72,2.84.48.65,1.27.97,2.38.97,1.68,0,2.52-1.37,2.52-4.1,0-2.02-.4-3.6-1.19-4.75s-2.05-2.38-3.78-3.67l-6.7-5.18c-2.3-1.78-3.96-3.61-4.97-5.51-1.01-1.9-1.51-4.57-1.51-8.03,0-2.69.71-4.98,2.12-6.88,1.42-1.9,3.3-3.32,5.65-4.28,2.35-.96,4.97-1.44,7.85-1.44,10.22,0,15.34,5.09,15.34,15.26v1.01h-13.03v-2.02c0-1.25-.21-2.32-.61-3.2-.41-.89-1.09-1.33-2.05-1.33-.86,0-1.52.25-1.98.76-.46.5-.68,1.19-.68,2.05,0,1.92.74,3.41,2.23,4.46l7.78,5.69c2.78,2.06,4.92,4.31,6.41,6.73,1.49,2.42,2.23,5.48,2.23,9.18,0,4.9-1.39,8.66-4.18,11.3-2.78,2.64-6.67,3.96-11.66,3.96-10.42,0-15.62-5.28-15.62-15.84Z"/><path class="b" d="M108.86,63.5c-1.25-1.39-1.87-3.62-1.87-6.7V23.9h-3.53v-9.58h3.53V3.17h12.24v11.16h3.6v9.58h-3.6v29.59c0,.91.07,1.58.22,2.02.14.43.53.65,1.15.65.48,0,.94-.02,1.37-.07.43-.05.72-.07.86-.07v8.64c-.72.19-1.76.4-3.13.61-1.37.22-2.7.32-4,.32-3.31,0-5.59-.7-6.84-2.09Z"/><path class="b" d="M126.72,8.78V0h12.6v8.78h-12.6ZM126.72,65.02V12.31h12.6v52.7h-12.6Z"/><path class="b" d="M144.28,12.31h12.6v6.7c.53-2.16,1.44-3.91,2.74-5.26,1.3-1.34,3.02-2.02,5.18-2.02,3.55,0,6.18,1.09,7.88,3.28,1.7,2.18,2.56,5.29,2.56,9.32v40.68h-12.38V25.63c0-1.15-.23-2.14-.68-2.95-.46-.82-1.16-1.22-2.12-1.22-1.3,0-2.15.59-2.56,1.76-.41,1.18-.61,2.75-.61,4.72v37.08h-12.6V12.31Z"/><path class="b" d="M1.37,132.44v-61.85h12.74l5.69,29.59v-29.59h11.95v61.85h-12.1l-6.19-30.96v30.96H1.37Z"/><path class="b" d="M38.19,128.95c-1.51-2.71-2.27-6.59-2.27-11.63,0-4.13.54-7.3,1.62-9.5,1.08-2.21,2.58-3.83,4.5-4.86,1.92-1.03,4.85-2.17,8.78-3.42l3.46-1.15v-5.4c0-1.39-.28-2.46-.83-3.2-.55-.74-1.21-1.12-1.98-1.12-.67,0-1.26.31-1.76.94-.5.62-.76,1.46-.76,2.52v3.17h-12.24v-1.73c0-5.18,1.21-8.88,3.64-11.09,2.42-2.21,6.37-3.31,11.84-3.31,4.37,0,7.92,1.14,10.66,3.42,2.74,2.28,4.1,5.51,4.1,9.68v40.18h-12.53v-6.26c-.62,2.16-1.62,3.84-2.99,5.04-1.37,1.2-2.99,1.8-4.86,1.8-4.08,0-6.88-1.36-8.39-4.07ZM53.6,122.04c.41-.79.61-1.76.61-2.92v-14.69c-1.87.72-3.25,1.63-4.14,2.74-.89,1.1-1.33,2.64-1.33,4.61v6.77c0,3.12.94,4.68,2.81,4.68.96,0,1.64-.4,2.05-1.19Z"/><path class="b" d="M71.78,79.74h12.6v5.83c.62-2.06,1.72-3.66,3.28-4.79,1.56-1.13,3.49-1.69,5.8-1.69v10.51c-1.78,0-3.73.25-5.87.76-2.14.5-3.2,1.09-3.2,1.76v40.32h-12.6v-52.7Z"/><path class="b" d="M103.25,132.44l-8.42-52.7h12.6l2.59,26.64.43,8.57.5-8.64,2.88-26.57h12.6l-8.57,52.7h-14.62Z"/><path class="b" d="M132.84,128.55c-2.35-2.98-3.53-7.42-3.53-13.32v-21.17c0-4.85,1.39-8.54,4.18-11.09,2.78-2.54,6.67-3.82,11.66-3.82,10.13,0,15.19,4.97,15.19,14.9v3.82c0,3.84-.05,6.96-.14,9.36h-18.29v10.22c0,1.82.19,3.25.58,4.28.38,1.03,1.2,1.55,2.45,1.55.96,0,1.64-.29,2.05-.86.41-.58.65-1.24.72-1.98.07-.74.11-1.84.11-3.28v-5.11h12.53v3.02c0,6.15-1.19,10.67-3.56,13.57-2.38,2.9-6.47,4.36-12.28,4.36-5.42,0-9.31-1.49-11.66-4.46ZM147.81,100.98v-6.77c0-3.79-.94-5.69-2.81-5.69-2.11,0-3.17,1.9-3.17,5.69v6.77h5.98Z"/><path class="b" d="M163.72,117.18l.07-4.18h12.6l.07,6.19c0,1.25.24,2.2.72,2.84.48.65,1.27.97,2.38.97,1.68,0,2.52-1.37,2.52-4.1,0-2.02-.4-3.6-1.19-4.75s-2.05-2.38-3.78-3.67l-6.7-5.18c-2.3-1.78-3.96-3.61-4.97-5.51-1.01-1.9-1.51-4.57-1.51-8.03,0-2.69.71-4.98,2.12-6.88,1.42-1.9,3.3-3.32,5.65-4.28,2.35-.96,4.97-1.44,7.85-1.44,10.22,0,15.34,5.09,15.34,15.26v1.01h-13.03v-2.02c0-1.25-.2-2.32-.61-3.2-.41-.89-1.09-1.33-2.05-1.33-.86,0-1.52.25-1.98.76-.46.5-.68,1.19-.68,2.05,0,1.92.74,3.41,2.23,4.46l7.78,5.69c2.78,2.06,4.92,4.31,6.41,6.73,1.49,2.42,2.23,5.48,2.23,9.18,0,4.9-1.39,8.66-4.18,11.3-2.78,2.64-6.67,3.96-11.66,3.96-10.42,0-15.62-5.28-15.62-15.84Z"/><path class="b" d="M198.64,116.67v-21.17c0-4.99,1.4-8.96,4.21-11.92,2.81-2.95,6.66-4.43,11.56-4.43s8.75,1.48,11.56,4.43c2.81,2.95,4.21,6.92,4.21,11.92v21.17c0,10.9-5.26,16.34-15.77,16.34s-15.77-5.45-15.77-16.34ZM216.64,122.22c.48-.72.72-1.7.72-2.95v-25.78c0-3.07-.98-4.61-2.95-4.61s-2.95,1.54-2.95,4.61v25.78c0,1.25.24,2.23.72,2.95.48.72,1.22,1.08,2.23,1.08s1.75-.36,2.23-1.08Z"/><path class="b" d="M234.86,79.74h12.6v6.7c.53-2.16,1.44-3.91,2.74-5.26,1.3-1.34,3.02-2.02,5.18-2.02,3.55,0,6.18,1.09,7.88,3.28,1.7,2.18,2.56,5.29,2.56,9.32v40.68h-12.38v-39.38c0-1.15-.23-2.14-.68-2.95-.46-.82-1.16-1.22-2.12-1.22-1.3,0-2.15.59-2.56,1.76-.41,1.18-.61,2.75-.61,4.72v37.08h-12.6v-52.7Z"/></svg>